<svg width="300" height="300" viewBox="0 0 300 300" fill="none" xmlns="http://www.w3.org/2000/svg">
<path fill-rule="evenodd" clip-rule="evenodd" d="M133.601 199.131C132.287 198.988 131.08 198.338 130.238 197.319C129.396 196.3 128.984 194.992 129.092 193.674C129.022 193.018 129.083 192.355 129.273 191.723C129.463 191.092 129.777 190.504 130.197 189.996C130.618 189.488 131.135 189.068 131.72 188.763C132.304 188.457 132.944 188.272 133.601 188.218H155.964C157.28 188.356 158.49 189.005 159.333 190.025C160.176 191.045 160.585 192.355 160.473 193.674C160.544 194.33 160.482 194.994 160.292 195.625C160.102 196.257 159.788 196.844 159.368 197.353C158.948 197.861 158.43 198.28 157.846 198.586C157.261 198.891 156.622 199.077 155.964 199.131H133.601ZM105.383 89.4879C105.665 89.2008 106.002 88.9728 106.373 88.8172C106.745 88.6616 107.143 88.5815 107.546 88.5815C107.949 88.5815 108.348 88.6616 108.719 88.8172C109.09 88.9728 109.427 89.2008 109.71 89.4879C110.283 90.0698 110.604 90.8538 110.604 91.6706C110.604 92.4873 110.283 93.2713 109.71 93.8532L104.51 99.128L109.746 104.439C110.317 105.015 110.637 105.793 110.637 106.604C110.637 107.415 110.317 108.192 109.746 108.768C109.464 109.053 109.128 109.278 108.759 109.432C108.389 109.586 107.992 109.665 107.592 109.665C107.191 109.665 106.795 109.586 106.425 109.432C106.055 109.278 105.719 109.053 105.437 108.768L100.255 103.493L95.0553 108.768C94.7728 109.055 94.436 109.283 94.0645 109.439C93.693 109.594 93.2944 109.675 92.8917 109.675C92.4889 109.675 92.0903 109.594 91.7188 109.439C91.3474 109.283 91.0106 109.055 90.728 108.768C90.1551 108.186 89.8339 107.402 89.8339 106.586C89.8339 105.769 90.1551 104.985 90.728 104.403L95.9462 99.1098L90.728 93.8169C90.1562 93.238 89.8355 92.4571 89.8355 91.6433C89.8355 90.8295 90.1562 90.0485 90.728 89.4697C91.0102 89.1854 91.3459 88.9597 91.7157 88.8057C92.0855 88.6517 92.482 88.5725 92.8826 88.5725C93.2831 88.5725 93.6797 88.6517 94.0494 88.8057C94.4192 88.9597 94.7549 89.1854 95.0371 89.4697L100.219 94.7445L105.419 89.4697L105.383 89.4879ZM181.67 253.224C182.443 253.114 183.232 253.171 183.981 253.392C184.73 253.613 185.424 253.992 186.014 254.504C186.604 255.017 187.077 255.65 187.402 256.361C187.726 257.072 187.894 257.844 187.894 258.626C187.894 259.408 187.726 260.18 187.402 260.891C187.077 261.602 186.604 262.235 186.014 262.748C185.424 263.26 184.73 263.639 183.981 263.86C183.232 264.081 182.443 264.138 181.67 264.028L71.7826 264.138C70.1073 264.131 68.45 263.794 66.9055 263.144C65.3611 262.495 63.96 261.547 62.7826 260.355C61.5691 259.175 60.6082 257.76 59.9581 256.196C59.308 254.633 58.9823 252.954 59.0007 251.261V63.7323C59.009 62.0597 59.3528 60.4058 60.0118 58.8686C60.6707 57.3314 61.6315 55.9422 62.8371 54.7833C64.0001 53.5871 65.3908 52.6361 66.9272 51.9863C68.4636 51.3365 70.1145 51.0011 71.7826 51H227.964C229.64 51.007 231.297 51.3449 232.841 51.9941C234.386 52.6433 235.787 53.5912 236.964 54.7833C238.183 55.936 239.157 57.3224 239.829 58.8599C240.501 60.3974 240.856 62.0545 240.873 63.7323L240.092 155.774C240.202 156.547 240.145 157.336 239.924 158.086C239.703 158.835 239.324 159.529 238.812 160.119C238.3 160.71 237.667 161.183 236.956 161.508C236.246 161.832 235.473 162 234.692 162C233.911 162 233.139 161.832 232.428 161.508C231.717 161.183 231.084 160.71 230.572 160.119C230.06 159.529 229.681 158.835 229.46 158.086C229.239 157.336 229.182 156.547 229.292 155.774L230.073 63.7323C230.078 63.4961 230.032 63.2616 229.938 63.045C229.844 62.8284 229.704 62.6347 229.528 62.4772C229.359 62.2804 229.145 62.1266 228.905 62.0286C228.665 61.9305 228.405 61.891 228.146 61.9134H71.7826C71.5465 61.9084 71.3121 61.9546 71.0956 62.0488C70.879 62.143 70.6854 62.2829 70.528 62.4591C70.3312 62.6037 70.1757 62.7973 70.0768 63.0206C69.9779 63.244 69.9392 63.4893 69.9644 63.7323V251.734C69.9644 252.216 70.1559 252.679 70.4969 253.02C70.8379 253.361 71.3003 253.552 71.7826 253.552L181.579 253.26L181.67 253.224ZM92.928 184.525H112.201C112.444 184.509 112.687 184.545 112.915 184.631C113.143 184.717 113.35 184.85 113.522 185.022C113.694 185.195 113.828 185.402 113.913 185.63C113.999 185.857 114.035 186.101 114.019 186.344V202.933C114.035 203.176 113.999 203.419 113.913 203.647C113.828 203.875 113.694 204.082 113.522 204.254C113.35 204.427 113.143 204.56 112.915 204.646C112.687 204.731 112.444 204.767 112.201 204.751H92.928C92.6851 204.767 92.4415 204.731 92.2137 204.646C91.9858 204.56 91.7788 204.427 91.6067 204.254C91.4345 204.082 91.3012 203.875 91.2155 203.647C91.1298 203.419 91.0938 203.176 91.1098 202.933V186.326C91.0938 186.083 91.1298 185.839 91.2155 185.611C91.3012 185.383 91.4345 185.176 91.6067 185.004C91.7788 184.832 91.9858 184.698 92.2137 184.613C92.4415 184.527 92.6851 184.491 92.928 184.507V184.525ZM133.601 103.748C132.285 103.61 131.075 102.961 130.232 101.941C129.389 100.921 128.98 99.6103 129.092 98.2913C129.022 97.6354 129.083 96.9721 129.273 96.3404C129.463 95.7087 129.777 95.1214 130.197 94.6129C130.618 94.1045 131.135 93.6853 131.72 93.3799C132.304 93.0745 132.944 92.8891 133.601 92.8346H196.128C197.442 92.9772 198.649 93.6273 199.491 94.6464C200.333 95.6656 200.744 96.9734 200.637 98.2913C200.707 98.9472 200.646 99.6106 200.456 100.242C200.266 100.874 199.952 101.461 199.531 101.97C199.111 102.478 198.594 102.897 198.009 103.203C197.425 103.508 196.785 103.694 196.128 103.748H133.601ZM98.5098 154.441C97.8734 154.878 97.0979 155.064 96.3326 154.963C95.5672 154.862 94.8662 154.482 94.3644 153.895L94.0007 153.531L88.2371 147.583C87.9567 147.245 87.7479 146.853 87.6231 146.431C87.4984 146.009 87.4603 145.566 87.5113 145.13C87.5623 144.693 87.7012 144.271 87.9197 143.889C88.1382 143.507 88.4317 143.174 88.7826 142.909C89.4549 142.268 90.3384 141.896 91.2663 141.863C92.1941 141.829 93.1022 142.137 93.8189 142.727L96.8735 145.965L106.964 137.852C107.327 137.612 107.736 137.448 108.165 137.373C108.594 137.297 109.034 137.311 109.457 137.414C109.88 137.516 110.278 137.705 110.625 137.968C110.972 138.231 111.261 138.564 111.473 138.944C112.077 139.667 112.376 140.597 112.308 141.536C112.241 142.476 111.811 143.353 111.11 143.982L98.5098 154.441ZM130.564 149.748C129.248 149.61 128.039 148.961 127.196 147.941C126.353 146.921 125.943 145.61 126.055 144.291C125.983 143.635 126.042 142.971 126.231 142.338C126.42 141.705 126.734 141.117 127.155 140.608C127.576 140.099 128.094 139.68 128.68 139.375C129.265 139.07 129.906 138.887 130.564 138.835H180.564C181.879 138.973 183.087 139.622 183.927 140.643C184.767 141.664 185.172 142.974 185.055 144.291C185.128 144.946 185.069 145.609 184.881 146.241C184.693 146.872 184.381 147.46 183.962 147.969C183.543 148.477 183.027 148.897 182.443 149.203C181.86 149.508 181.221 149.694 180.564 149.748H130.564Z" fill="white"/>
<path fill-rule="evenodd" clip-rule="evenodd" d="M236.267 276.717C248.629 232.456 248.272 232.259 257.203 200.706L259.35 201.948C260.518 202.621 261.472 202.067 261.472 200.722V185.68C263.841 177.366 265.702 170.942 266.242 169.008H275.921L292 183.928L281.443 193.065L289.432 201.711L236.796 276.717C236.537 277.14 236.18 277.045 236.259 276.717H236.267Z" fill="white"/>
<path fill-rule="evenodd" clip-rule="evenodd" d="M242.019 181.329C242.496 181.329 242.881 181.59 242.881 181.922V189.635C242.881 189.952 242.524 190.221 242.047 190.221H229.049C228.572 190.221 228.174 189.956 228.174 189.627V181.914C228.174 181.59 228.572 181.329 229.049 181.329H242.047H242.019ZM258.062 172.785L243.76 181.052C243.927 181.309 244.026 181.606 244.026 181.922V189.635C244.026 190.031 243.867 190.387 243.589 190.683L258.018 199.029C258.972 199.603 259.807 199.136 259.807 198.001V173.826C259.807 172.686 258.972 172.22 258.018 172.789L258.062 172.785ZM227.006 189.635V181.922C227.006 181.606 227.105 181.309 227.268 181.052L212.966 172.785C211.984 172.22 211.177 172.686 211.177 173.822V197.989C211.177 199.136 211.98 199.571 212.966 199.017L227.415 190.672C227.157 190.355 227.002 189.999 227.002 189.604L227.006 189.635Z" fill="white"/>
<path fill-rule="evenodd" clip-rule="evenodd" d="M234.196 276.717H234.729C222.367 232.456 222.724 232.259 213.797 200.706L211.65 201.948C210.482 202.621 209.524 202.067 209.524 200.722V185.68C207.143 177.362 205.274 170.938 204.718 169H195.059L179 183.924L189.554 193.061L181.564 201.707L234.192 276.701L234.196 276.717Z" fill="white"/>
<path d="M235.106 206.319C237.262 206.319 239.01 204.569 239.01 202.411C239.01 200.253 237.262 198.503 235.106 198.503C232.951 198.503 231.203 200.253 231.203 202.411C231.203 204.569 232.951 206.319 235.106 206.319Z" fill="white"/>
<path d="M235.106 229.565C237.262 229.565 239.01 227.815 239.01 225.657C239.01 223.499 237.262 221.749 235.106 221.749C232.951 221.749 231.203 223.499 231.203 225.657C231.203 227.815 232.951 229.565 235.106 229.565Z" fill="white"/>
<path d="M235.106 252.811C237.262 252.811 239.01 251.061 239.01 248.903C239.01 246.744 237.262 244.995 235.106 244.995C232.951 244.995 231.203 246.744 231.203 248.903C231.203 251.061 232.951 252.811 235.106 252.811Z" fill="white"/>
</svg>
